# xmcd
#
# Track frame offsets:
#	150
#	12800
#	25900
#	38117
#	47545
#	59915
#	69647
#	92615
#	104892
#	117217
#	126945
#	138510
#	151337
#	163420
#	179642
#	190977
#	201990
#	215207
#	226705
#	238845
#	251262
#	261925
#
# Disc length: 3680 seconds
#
# Revision: 3
# Processed by: cddbd v1.5.1PL2 Copyright (c) Steve Scherf et al.
# Submitted via: Rip'N'TagIt 1.3.0.1 
#
DISCID=4e0e5e16
DTITLE=Various Artist - 50 Soul Hits, Disc 2
DYEAR=1900
DGENRE=blues
TTITLE0=When a Man Loves a Woman
TTITLE1=Stand By Me
TTITLE2=Reet Petite
TTITLE3=Wonderful World
TTITLE4=Please, Please, Please
TTITLE5=There Goes My Baby
TTITLE6=What'd I Say
TTITLE7=Rock Me Baby
TTITLE8=Shop Around
TTITLE9=Treasure of Love
TTITLE10=Chain Gang
TTITLE11=Spanish Harlem
TTITLE12=Lonely Teardrops
TTITLE13=Georgia On My Mind
TTITLE14=Try Me (I Need You)
TTITLE15=Save the Last Dance for Me
TTITLE16=It's Crazy Baby
TTITLE17=A Lovers Question
TTITLE18=He Will Break Your Heart
TTITLE19=You Send Me
TTITLE20=Ya Ya
TTITLE21=Warm and Tender Love
EXTD=
EXTT0=
EXTT1=
EXTT2=
EXTT3=
EXTT4=
EXTT5=
EXTT6=
EXTT7=
EXTT8=
EXTT9=
EXTT10=
EXTT11=
EXTT12=
EXTT13=
EXTT14=
EXTT15=
EXTT16=
EXTT17=
EXTT18=
EXTT19=
EXTT20=
EXTT21=
PLAYORDER=
